# xmcd CD database file
#
# Track frame offsets:
#	150
#	27585
#	45145
#	68990
#	95535
#	115255
#	146172
#	172222
#	195392
#	212762
#
# Disc length: 3091 seconds
#
# Revision: 3
# Processed by: cddbd v1.5.2PL0 Copyright (c) Steve Scherf et al.
# Submitted via: CDex 1.70
#
DISCID=910c110a
DTITLE=Herb Alpert - Midnight Sun
DYEAR=1992
DGENRE=Jazz
TTITLE0=Midnight Sun
TTITLE1=All the Things You Are
TTITLE2=Someone to Watch Over Me
TTITLE3=In the Wee Small Hours of the Morning
TTITLE4=Friends
TTITLE5=A Taste of Honey
TTITLE6=Mona Lisa
TTITLE7=I've Grown Accustomed to Her Face
TTITLE8=Silent Tears and Roses
TTITLE9=Smile
EXTD=YEAR: 1992
EXTT0=
EXTT1=
EXTT2=
EXTT3=
EXTT4=
EXTT5=
EXTT6=
EXTT7=
EXTT8=
EXTT9=
PLAYORDER=
